<?xml version="1.0" standalone="no"?>
<!DOCTYPE svg PUBLIC "-//W3C//DTD SVG 20010904//EN"
 "http://www.w3.org/TR/2001/REC-SVG-20010904/DTD/svg10.dtd">
<svg version="1.0" xmlns="http://www.w3.org/2000/svg"
 width="25.000000pt" height="32.000000pt" viewBox="0 0 25.000000 32.000000"
 preserveAspectRatio="xMidYMid meet">

<g transform="translate(0.000000,32.000000) scale(0.100000,-0.100000)"
fill="#000000" stroke="none">
<path d="M86 269 c-14 -11 -26 -28 -26 -37 0 -9 -9 -32 -21 -51 -12 -20 -16
-36 -11 -40 6 -3 12 -17 13 -31 3 -17 11 -26 26 -28 14 -2 23 -11 25 -25 3
-19 10 -22 61 -25 60 -3 61 -3 57 50 -1 15 6 38 14 50 19 26 21 77 5 111 -22
48 -97 62 -143 26z m119 -14 c30 -29 34 -88 9 -123 -9 -13 -14 -37 -12 -55 l3
-32 -52 -3 c-48 -3 -53 -1 -53 18 0 11 7 23 15 26 8 4 15 10 15 15 0 5 -11 4
-24 -3 -31 -14 -56 -4 -56 21 0 11 -5 23 -11 26 -7 5 -6 12 4 23 8 10 20 34
26 54 14 44 33 57 79 58 22 0 41 -8 57 -25z"/>
<path d="M116 203 c-16 -33 -16 -35 -1 -23 13 11 21 11 36 2 10 -7 19 -10 19
-7 0 8 -30 65 -33 65 -2 0 -11 -17 -21 -37z m29 7 c3 -5 1 -10 -4 -10 -6 0
-11 5 -11 10 0 6 2 10 4 10 3 0 8 -4 11 -10z"/>
<path d="M183 205 c0 -22 2 -30 4 -17 2 12 2 30 0 40 -3 9 -5 -1 -4 -23z"/>
</g>
</svg>
