<svg width="280" height="280" viewBox="0 0 280 280" fill="none" xmlns="http://www.w3.org/2000/svg">
<rect x="24" y="28" width="233" height="224" fill="white"/>
<path d="M50 0C22.4 0 0 22.4 0 50V230C0 257.6 22.4 280 50 280H230C257.6 280 280 257.6 280 230V49.8726C280 22.3287 257.671 0 230.127 0H50ZM175.2 223.333H142.667L140.533 204.667C136.633 211.433 131.3 216.767 124.533 220.667C117.767 224.4 109.7 226.267 100.267 226.267C89.4333 226.267 79.3667 223.6 70.1333 218.267C61.0667 212.767 53.7667 205.033 48.2667 195.067C42.9333 185.1 40.2667 173.633 40.2667 160.667C40.2667 148.4 43.1 137.3 48.8 127.333C54.6667 117.2 62.7667 109.3 73.0667 103.6C83.3667 97.9 94.9333 95.0667 107.733 95.0667C120.533 95.0667 175.2 95.0667 175.2 95.0667V124.194C175.2 124.194 175.2 147.767 175.2 160.933V223.333ZM236.867 223.333H200.067V98H236.867V223.333ZM234.467 72.6667C230.033 76.9333 224.7 79.0667 218.467 79.0667C212.233 79.0667 195.533 79.0667 195.533 79.0667C195.533 79.0667 195.533 63.2333 195.533 57.2C195.533 51.1667 197.767 45.7333 202.2 41.4667C206.833 37.0333 212.233 34.8 218.467 34.8C224.7 34.8 230.033 37.0333 234.467 41.4667C239.1 45.7333 241.4 50.9667 241.4 57.2C241.4 63.4333 239.1 68.4 234.467 72.6667Z" fill="#CE00D6"/>
<path d="M74.0645 162.581C74.0645 145.121 88.2181 130.968 105.677 130.968H137.29V162.581C137.29 180.04 123.137 194.194 105.677 194.194C88.2181 194.194 74.0645 180.04 74.0645 162.581Z" fill="#CE00D6"/>
</svg>
