<svg xmlns="http://www.w3.org/2000/svg" viewBox="0 0 36 36"><defs><style>.cls-1,.cls-2{fill:none;stroke-miterlimit:10;}.cls-1{stroke:#733eff;}.cls-2{stroke:#1a0d3c;}</style></defs><g id="Large_icons" data-name="Large icons"><path class="cls-1" d="M33,18.076A15.00089,15.00089,0,0,1,18,33.07781"/><path class="cls-1" d="M3,18.076A15.00089,15.00089,0,0,1,18,3.07426h.26285"/><circle class="cls-1" cx="17.19214" cy="33.07781" r="0.80786"/><circle class="cls-1" cx="19.07143" cy="3.07426" r="0.80786"/><ellipse class="cls-2" cx="18" cy="11.83929" rx="7.5" ry="2.94129"/><path class="cls-2" d="M25.5,14.25514V15.852c0,1.47366-3.35786,2.66829-7.5,2.66829s-7.5-1.19463-7.5-2.66829V14.25514"/><path class="cls-2" d="M25.5,18.55113V20.148c0,1.47365-3.35786,2.66829-7.5,2.66829s-7.5-1.19464-7.5-2.66829V18.55113"/><path class="cls-2" d="M25.5,22.83685v1.59686c0,1.47366-3.35786,2.66829-7.5,2.66829s-7.5-1.19463-7.5-2.66829V22.83685"/></g></svg>