<?xml version="1.0" standalone="no"?>
<!DOCTYPE svg PUBLIC "-//W3C//DTD SVG 20010904//EN"
 "http://www.w3.org/TR/2001/REC-SVG-20010904/DTD/svg10.dtd">
<svg version="1.0" xmlns="http://www.w3.org/2000/svg"
 width="50.000000pt" height="50.000000pt" viewBox="0 0 590.000000 736.000000"
 preserveAspectRatio="xMidYMid meet">

<g transform="translate(0.000000,736.000000) scale(0.100000,-0.100000)"
fill="#000000" stroke="none">
<path d="M2820 7295 c-158 -39 -294 -139 -384 -282 -71 -114 -101 -296 -72
-432 88 -412 545 -616 905 -404 274 161 378 512 236 796 -81 160 -232 281
-406 322 -78 18 -204 18 -279 0z"/>
<path d="M4455 6190 c-137 -19 -261 -85 -365 -197 -173 -184 -208 -466 -88
-696 45 -87 173 -212 260 -254 245 -120 519 -76 708 116 87 87 132 165 160
277 51 200 -3 410 -144 561 -138 149 -333 219 -531 193z"/>
<path d="M1165 6101 c-192 -55 -347 -204 -412 -396 -38 -110 -39 -266 -5 -370
112 -336 462 -510 790 -395 146 52 269 163 337 305 50 105 65 166 65 273 0
164 -61 305 -184 427 -87 86 -166 132 -273 160 -78 20 -241 18 -318 -4z"/>
<path d="M2423 5980 c-125 -18 -265 -75 -376 -153 -46 -33 -57 -45 -53 -61 3
-12 12 -48 20 -81 70 -272 -33 -562 -260 -735 l-67 -50 51 0 c108 0 280 -37
400 -86 9 -5 12 38 12 193 0 215 6 243 54 243 22 0 23 4 29 108 12 250 139
462 352 586 l80 46 -95 -1 c-52 -1 -118 -5 -147 -9z"/>
<path d="M3255 5963 c151 -86 241 -177 308 -314 61 -123 81 -220 74 -354 -11
-212 -108 -397 -273 -521 l-65 -49 83 -8 c74 -7 85 -5 108 13 14 11 57 41 97
67 l72 48 0 180 c1 197 8 225 56 225 47 0 55 -30 55 -197 l0 -152 54 19 c79
27 159 42 264 49 l93 6 -62 45 c-219 159 -330 464 -264 729 l18 74 -24 20
c-41 34 -180 96 -264 118 -58 15 -122 22 -230 26 l-150 4 50 -28z"/>
<path d="M2774 5922 c-216 -64 -373 -225 -429 -438 -18 -68 -20 -210 -4 -286
34 -166 162 -329 320 -407 156 -77 301 -89 465 -37 190 61 348 228 399 421 18
72 21 232 5 300 -47 193 -195 358 -386 431 -93 36 -277 43 -370 16z"/>
<path d="M2270 4883 c0 -112 1 -203 3 -203 1 0 27 7 57 15 30 8 99 18 152 21
l97 7 -44 29 c-90 60 -178 163 -235 275 l-29 58 -1 -202z"/>
<path d="M4059 4870 c-101 -10 -190 -32 -277 -71 -74 -33 -182 -97 -182 -108
0 -4 18 -13 40 -20 80 -24 237 -112 320 -179 152 -123 273 -312 329 -512 l26
-95 0 -810 0 -810 -29 -62 c-48 -104 -140 -174 -250 -191 -53 -8 -129 -2 -169
13 -17 7 -17 -29 -15 -761 l3 -769 27 -50 c56 -107 145 -159 268 -160 58 0 85
5 120 22 63 31 119 88 149 153 l26 55 5 725 c3 399 9 731 13 738 29 45 117 51
153 11 18 -20 19 -53 24 -748 l5 -726 23 -50 c29 -63 83 -119 147 -153 41 -21
64 -26 125 -26 97 -1 163 28 224 95 83 92 76 -73 76 1918 0 977 3 1786 6 1797
3 12 17 27 30 33 21 9 28 8 49 -14 l25 -24 0 -778 c0 -733 1 -780 19 -818 72
-157 292 -188 401 -57 61 73 60 65 60 863 0 461 -4 756 -11 806 -48 356 -306
647 -657 740 -97 26 -97 26 -557 29 -253 1 -499 -1 -546 -6z"/>
<path d="M745 4784 c-328 -72 -585 -317 -677 -649 -22 -79 -22 -90 -26 -853
-4 -879 -6 -849 72 -926 69 -69 160 -91 247 -61 62 22 101 55 134 116 l30 54
3 784 c2 547 6 789 14 798 13 17 74 17 85 1 4 -7 10 -825 13 -1818 l5 -1805
27 -51 c91 -173 317 -216 466 -89 22 20 53 61 69 93 l28 57 3 723 c3 801 -1
760 68 782 49 16 104 -11 121 -60 9 -26 12 -222 13 -740 l0 -705 24 -50 c32
-70 113 -141 184 -161 146 -43 295 26 361 165 l26 56 3 793 c3 867 7 805 -55
781 -15 -6 -57 -11 -93 -11 -133 0 -243 69 -302 190 l-33 67 -3 745 c-3 799 0
871 45 1015 52 165 131 292 259 416 87 84 158 133 272 187 74 35 75 36 53 53
-25 21 -148 72 -227 96 -52 15 -120 18 -599 20 -451 1 -551 -1 -610 -13z"/>
<path d="M2360 4605 c-283 -59 -510 -239 -630 -498 -78 -169 -74 -116 -78
-1016 l-3 -804 26 -53 c29 -59 68 -92 138 -119 108 -41 233 12 293 125 18 33
19 79 24 825 3 435 9 796 13 803 11 16 72 16 86 -1 8 -10 11 -516 13 -1813 3
-1728 4 -1801 22 -1839 68 -147 217 -215 372 -170 48 14 69 27 115 74 94 96
89 49 89 858 0 778 -2 751 63 778 43 18 82 9 112 -27 l25 -30 0 -708 c0 -699
0 -710 21 -767 28 -76 103 -151 177 -177 142 -50 302 16 369 152 l28 57 5
1803 c4 1588 7 1804 20 1812 21 13 54 12 68 -2 9 -9 12 -197 12 -782 0 -500 4
-784 10 -808 15 -52 68 -119 117 -146 122 -67 268 -20 330 106 l28 57 0 775
c0 771 0 775 -23 864 -69 275 -245 490 -494 605 -164 76 -149 75 -748 77 -419
2 -549 0 -600 -11z"/>
</g>
</svg>
