<?xml version="1.0" standalone="no"?>
<!DOCTYPE svg PUBLIC "-//W3C//DTD SVG 20010904//EN"
 "http://www.w3.org/TR/2001/REC-SVG-20010904/DTD/svg10.dtd">
<svg version="1.0" xmlns="http://www.w3.org/2000/svg"
 width="50.000000pt" height="50.000000pt" viewBox="0 0 182.000000 184.000000"
 preserveAspectRatio="xMidYMid meet">

<g transform="translate(0.000000,184.000000) scale(0.100000,-0.100000)"
fill="#000000" stroke="none">
<path d="M810 1799 c-227 -26 -442 -145 -587 -325 -111 -138 -176 -297 -192
-468 -16 -168 11 -321 84 -471 88 -181 221 -315 400 -405 144 -73 229 -92 395
-92 165 0 249 19 395 91 178 88 308 218 396 396 72 146 91 230 91 395 0 166
-19 251 -92 395 -166 332 -523 526 -890 484z m295 -149 c362 -93 611 -467 555
-835 -69 -455 -511 -746 -950 -624 -256 71 -463 280 -531 536 -27 101 -29 268
-5 368 76 306 337 537 656 578 60 8 198 -3 275 -23z"/>
<path d="M610 920 l0 -390 115 0 115 0 0 390 0 390 -115 0 -115 0 0 -390z"/>
<path d="M980 920 l0 -390 120 0 120 0 0 390 0 390 -120 0 -120 0 0 -390z"/>
</g>
</svg>
