<?xml version="1.0" standalone="no"?>
<!DOCTYPE svg PUBLIC "-//W3C//DTD SVG 20010904//EN"
 "http://www.w3.org/TR/2001/REC-SVG-20010904/DTD/svg10.dtd">
<svg version="1.0" xmlns="http://www.w3.org/2000/svg"
 width="44.000000pt" height="36.000000pt" viewBox="0 0 44.000000 36.000000"
 preserveAspectRatio="xMidYMid meet">

<g transform="translate(0.000000,36.000000) scale(0.100000,-0.100000)"
fill="#000000" stroke="none">
<path d="M143 313 c15 -2 37 -2 50 0 12 2 0 4 -28 4 -27 0 -38 -2 -22 -4z"/>
<path d="M54 295 c-3 -8 -3 -19 1 -25 8 -13 42 -13 50 0 13 21 51 9 78 -25 18
-23 36 -35 53 -35 13 0 33 -5 43 -12 24 -15 53 -3 49 19 -3 19 -48 32 -48 14
0 -6 -13 -11 -30 -11 -21 0 -36 9 -57 35 -20 24 -36 35 -55 35 -15 0 -30 5
-33 10 -9 15 -45 12 -51 -5z m36 -10 c0 -8 -4 -15 -10 -15 -5 0 -10 7 -10 15
0 8 5 15 10 15 6 0 10 -7 10 -15z m220 -70 c0 -8 -4 -15 -10 -15 -5 0 -10 7
-10 15 0 8 5 15 10 15 6 0 10 -7 10 -15z"/>
<path d="M226 294 c-3 -9 -4 -20 0 -25 7 -12 41 -11 49 1 3 6 32 11 63 12 l57
2 -55 3 c-30 2 -59 8 -64 14 -15 14 -43 11 -50 -7z m34 -9 c0 -8 -4 -15 -10
-15 -5 0 -10 7 -10 15 0 8 5 15 10 15 6 0 10 -7 10 -15z"/>
<path d="M127 234 c-4 -4 -7 -16 -7 -26 0 -13 7 -18 26 -18 21 0 25 4 22 22
-3 23 -27 35 -41 22z m33 -25 c0 -5 -7 -9 -15 -9 -15 0 -20 12 -9 23 8 8 24
-1 24 -14z"/>
<path d="M133 163 c9 -2 23 -2 30 0 6 3 -1 5 -18 5 -16 0 -22 -2 -12 -5z"/>
<path d="M263 163 c15 -2 37 -2 50 0 12 2 0 4 -28 4 -27 0 -38 -2 -22 -4z"/>
<path d="M54 145 c-3 -8 -3 -19 1 -25 8 -13 42 -13 50 0 8 14 61 13 84 -2 22
-14 51 -4 51 17 0 21 -29 31 -51 17 -23 -15 -76 -16 -84 -2 -9 15 -45 12 -51
-5z m36 -10 c0 -8 -4 -15 -10 -15 -5 0 -10 7 -10 15 0 8 5 15 10 15 6 0 10 -7
10 -15z m130 0 c0 -8 -4 -15 -10 -15 -5 0 -10 7 -10 15 0 8 5 15 10 15 6 0 10
-7 10 -15z"/>
<path d="M340 150 c0 -5 -13 -10 -29 -10 -21 0 -36 -8 -51 -30 -16 -23 -29
-30 -54 -30 -17 0 -37 5 -43 11 -17 17 -43 3 -43 -21 0 -24 26 -38 43 -21 6 6
24 11 40 11 21 0 39 10 61 35 34 37 54 42 86 23 23 -15 46 1 37 26 -7 17 -47
22 -47 6z m31 -13 c-1 -12 -15 -9 -19 4 -3 6 1 10 8 8 6 -3 11 -8 11 -12z
m-211 -67 c0 -5 -7 -10 -15 -10 -8 0 -15 5 -15 10 0 6 7 10 15 10 8 0 15 -4
15 -10z"/>
<path d="M284 75 c-8 -20 4 -35 26 -35 23 0 32 13 24 34 -8 20 -43 21 -50 1z
m36 -10 c0 -8 -4 -15 -9 -15 -13 0 -22 16 -14 24 11 11 23 6 23 -9z"/>
<path d="M203 43 c15 -2 37 -2 50 0 12 2 0 4 -28 4 -27 0 -38 -2 -22 -4z"/>
</g>
</svg>
