<svg xmlns="http://www.w3.org/2000/svg" viewBox="0 0 1059.21 150"><defs><style>.cls-1{fill:#f5f7fa;}.cls-2{fill:#fff;}</style></defs><title>CockroachLabs_Full-Logo-Horizontal_White</title><g id="Layer_2" data-name="Layer 2"><g id="Logos"><path class="cls-1" d="M95.31,101h0a81.31,81.31,0,0,0-28-83,73.33,73.33,0,0,1,50.74-8.24l2-8A82.12,82.12,0,0,0,103.66,0,80.86,80.86,0,0,0,60,12.69,80.84,80.84,0,0,0,16.4,0,81.4,81.4,0,0,0,0,1.66l2,8A73.4,73.4,0,0,1,16.4,8.26a72.62,72.62,0,0,1,36.34,9.66A81.32,81.32,0,0,0,57.69,148.4L60,150l2.34-1.6A81.47,81.47,0,0,0,95.31,101ZM55.9,136.6a73,73,0,0,1-22-77.1A81.47,81.47,0,0,0,49.29,78.11,20,20,0,0,1,55.9,93ZM60,76.24A73.3,73.3,0,0,1,45.39,61.71a20.21,20.21,0,0,1,0-24.42A72.87,72.87,0,0,1,60,22.72,73.14,73.14,0,0,1,74.88,37.53a20,20,0,0,1,0,23.94A73.3,73.3,0,0,1,60,76.24Zm4.13,60.36V93a20,20,0,0,1,6.61-14.89A81.47,81.47,0,0,0,86.12,59.5a72.77,72.77,0,0,1,3.34,21.82A73.09,73.09,0,0,1,64.16,136.6Z"/><path class="cls-2" d="M301.87,85.6c0,20.78-13.49,35.08-32.78,35.08s-32.93-14.3-32.93-35.08,13.5-35.08,32.93-35.08S301.87,64.82,301.87,85.6ZM248,85.6c0,15,8.23,25.37,21,25.37S290,100.58,290,85.6s-8.1-25.36-20.91-25.36S248,70.63,248,85.6Z"/><path class="cls-2" d="M479.77,63.38A31.8,31.8,0,0,0,471,62c-8.91,0-15.52,7.69-15.52,21.18v35.62h-11.6V52.41H454.8v10c3.1-6.48,8.63-11.09,16.46-11.09,5.54,0,8.5,1.64,8.5,1.64Z"/><path class="cls-2" d="M549.26,85.6c0,20.78-13.5,35.08-32.79,35.08s-32.92-14.3-32.92-35.08S497,50.52,516.47,50.52,549.26,64.82,549.26,85.6Zm-53.84,0c0,15,8.23,25.37,21.05,25.37s20.91-10.39,20.91-25.37-8.09-25.36-20.91-25.36S495.42,70.63,495.42,85.6Z"/><path class="cls-2" d="M589.36,50.52c-10.1,0-19,4-26.87,10v12c5.44-4.39,15.63-12.41,27.28-12.41,5.11,0,9.34,1.47,12.09,4.21a11.11,11.11,0,0,1,2.36,3.46,7.22,7.22,0,0,1-5.36,10l-8.42,1.53c-16.59,3-30.9,7.56-30.9,23.07,0,13.23,10.8,18.62,23.75,18.62,10,0,18.08-3.64,22.53-10.39v8.23h10.53V72.65C616.35,59.7,606.9,50.52,589.36,50.52Zm15.92,34.11V94c0,10.93-9.31,17.4-20.77,17.4-8.5,0-13.63-3.37-13.63-9.44a9.51,9.51,0,0,1,2.81-7.1C580.31,88.21,599.82,88.33,605.28,84.63Z"/><path class="cls-2" d="M749.12,73.32v45.47H737.51V77c0-10.93-5.39-16.6-15.24-16.6a16.94,16.94,0,0,0-17.14,17.27v41.15h-11.6v-88h11.6V60c4.45-6.21,11.74-9.45,20.24-9.45C741.43,50.52,749.12,60.91,749.12,73.32Z"/><path class="cls-2" d="M810.64,108.27h39v10.52H798.22v-88h12.42Z"/><path class="cls-2" d="M994.84,85.6c0,21.05-12.41,35-29.28,35-10.52,0-18.08-4.18-22.67-11.74v10H932v-88h11.61V61.72c4.59-7,12-11.06,22-11.06C982.7,50.66,994.84,64.55,994.84,85.6ZM983,85.6c0-15-7.56-25.09-19.16-25.09-12,0-20.65,9.31-20.65,25.09s8.77,25,20.65,25C975.28,110.56,983,100.58,983,85.6Z"/><path class="cls-2" d="M361.5,104.34s-8.12,5.73-17.3,5.73c-17.39,0-20.36-18.11-20.36-24.64,0-3.58,1.21-24.48,20.85-24.48a39.22,39.22,0,0,1,16.81,4.34V54.79a35.72,35.72,0,0,0-17.35-4.5c-20.47,0-32.26,16.68-32.26,34.54,0,31.06,23.21,35.81,31.71,35.81,3.75,0,11.54-.65,17.9-4.72Z"/><path class="cls-2" d="M679.06,104.34s-8.11,5.73-17.3,5.73c-17.39,0-20.35-18.11-20.35-24.64,0-3.58,1.21-24.48,20.84-24.48a39.22,39.22,0,0,1,16.81,4.34V54.79a35.72,35.72,0,0,0-17.35-4.5c-20.46,0-32.26,16.68-32.26,34.54,0,31.06,23.21,35.81,31.71,35.81,3.76,0,11.54-.65,17.9-4.72Z"/><path class="cls-2" d="M421.76,118.79h12.95L408,78.91v0a112.12,112.12,0,0,0,16.43-26.48H411.81a101.23,101.23,0,0,1-24.19,31.06V30.79H376v88h11.6V98a112.47,112.47,0,0,0,13-11.07Z"/><path class="cls-2" d="M889.82,50.52c-10.11,0-19,4-26.88,10v12c5.44-4.39,15.64-12.41,27.28-12.41,5.12,0,9.35,1.47,12.09,4.21a11.15,11.15,0,0,1,2.37,3.46,7.23,7.23,0,0,1-5.37,10l-8.41,1.53c-16.6,3-30.9,7.56-30.9,23.07,0,13.23,10.79,18.62,23.75,18.62,10,0,18.08-3.64,22.53-10.39v8.23H916.8V72.65C916.8,59.7,907.36,50.52,889.82,50.52Zm15.92,34.11V94c0,10.93-9.31,17.4-20.78,17.4-8.5,0-13.63-3.37-13.63-9.44a9.55,9.55,0,0,1,2.81-7.1C880.76,88.21,900.27,88.33,905.74,84.63Z"/><path class="cls-2" d="M1034.11,79.67c-12.14-2.7-17.81-4-17.81-9.85s5.53-9.85,14.57-9.85c8,0,13.38,2.1,24.21,10.16V57.94c-7.65-5.41-14.67-7.42-24.21-7.42-15.38,0-25.77,8.1-25.77,19.7,0,11.06,6.48,15,24.15,18.76,10.66,2.29,18.62,4.31,18.62,11.6,0,6.61-6.47,10.52-15.11,10.52s-13.52-2.51-26.55-12.17l0,.11v12.68c8.68,6.63,16.3,9,26.45,9,16,0,26.58-8.36,26.58-20.64C1059.21,88.3,1051.38,83.58,1034.11,79.67Z"/><path class="cls-2" d="M197.75,109.44c-29.77,0-29.31-31.1-29.31-34.68,0-33.13,25.05-34.07,30.34-34.07,10.28,0,18.67,3.83,26.36,10.49V37.67a45,45,0,0,0-26.36-8.62c-15.81,0-42.57,9.62-42.57,45.71,0,3.47.51,15.66,7,26.88,7.2,12.43,19.15,19,34.54,19,12.32,0,19.77-4.05,27.39-9.62V97.59C215.18,105.32,209.85,109.44,197.75,109.44Z"/></g></g></svg>