<svg width="50" height="60" viewBox="0 0 280 280" fill="none" xmlns="http://www.w3.org/2000/svg">
<path d="M911.354 37.9115H945V204.189H911.354V37.9115Z" fill="black"/>
<path d="M653.049 61.4634C653.049 40.2476 670.248 23.0488 691.464 23.0488H837.439C858.655 23.0488 875.854 40.2476 875.854 61.4634V199.756C875.854 220.972 858.655 238.171 837.439 238.171H691.464C670.248 238.171 653.049 220.972 653.049 199.756V61.4634Z" fill="white"/>
<path d="M682.663 0C657.429 0 636.949 20.4799 636.949 45.714V210.284C636.949 235.519 657.429 255.998 682.663 255.998H847.233C872.467 255.998 892.947 235.519 892.947 210.284V0H682.663ZM797.131 204.189H767.386L765.436 187.123C761.87 193.309 756.994 198.185 750.807 201.751C744.62 205.164 737.245 206.871 728.621 206.871C718.716 206.871 709.512 204.433 701.07 199.557C692.781 194.528 686.107 187.458 681.078 178.346C676.202 169.233 673.764 158.749 673.764 146.894C673.764 135.679 676.354 125.531 681.566 116.418C686.929 107.154 694.335 99.9308 703.752 94.7194C713.169 89.508 723.744 86.9175 735.447 86.9175C747.15 86.9175 797.131 86.9175 797.131 86.9175V113.548C797.131 113.548 797.131 135.1 797.131 147.138V204.189ZM853.511 204.189H819.866V89.5994H853.511V204.189ZM851.317 66.4377C847.264 70.3386 842.387 72.2891 836.688 72.2891C830.989 72.2891 815.721 72.2891 815.721 72.2891C815.721 72.2891 815.721 57.813 815.721 52.2968C815.721 46.7807 817.763 41.8131 821.816 37.9121C826.052 33.8588 830.989 31.8169 836.688 31.8169C842.387 31.8169 847.264 33.8588 851.317 37.9121C855.553 41.8131 857.656 46.5978 857.656 52.2968C857.656 57.9958 855.553 62.5367 851.317 66.4377Z" fill="url(#paint0_linear_254_2)"/>
<path d="M704.664 148.644C704.664 132.682 717.605 119.741 733.567 119.741H762.471V148.644C762.471 164.607 749.53 177.547 733.567 177.547C717.605 177.547 704.664 164.607 704.664 148.644Z" fill="url(#paint1_linear_254_2)"/>
<path d="M554.623 138.361C554.623 123.57 558.849 111.298 567.301 101.546C575.916 91.7936 588.431 86.9175 604.848 86.9175C610.699 86.9175 616.144 87.5676 621.183 88.8679V119.1L612.894 118.856C604.279 118.856 598.021 120.725 594.12 124.464C590.219 128.202 588.269 133.729 588.269 141.043V204.189H554.623V138.361Z" fill="black"/>
<path d="M473.308 255.145C457.542 255.145 444.539 251.082 434.299 242.955C424.221 234.828 418.045 224.181 415.769 211.016H448.196C449.821 215.729 452.747 219.63 456.973 222.719C461.199 225.807 466.644 227.351 473.308 227.351C492.162 227.351 501.59 215.648 501.59 192.243V187.123C494.113 199.313 482.166 205.408 465.75 205.408C455.835 205.408 446.733 202.97 438.443 198.094C430.154 193.218 423.571 186.31 418.695 177.37C413.819 168.431 411.381 158.191 411.381 146.65C411.381 135.435 413.981 125.277 419.183 116.174C424.546 107.072 431.861 99.9205 441.125 94.7193C450.39 89.5181 460.874 86.9175 472.577 86.9175C484.279 86.9175 494.601 89.5993 503.54 94.9631C512.48 100.164 519.388 107.56 524.264 117.15C529.302 126.577 531.822 137.304 531.822 149.332V189.073C531.822 204.352 528.977 216.948 523.289 226.863C517.762 236.778 510.529 243.93 501.59 248.318C492.813 252.869 483.385 255.145 473.308 255.145ZM472.577 177.37C480.053 177.37 486.555 174.77 492.081 169.568C497.77 164.205 500.614 156.565 500.614 146.65C500.614 137.711 497.933 130.397 492.569 124.708C487.368 118.856 480.703 115.931 472.577 115.931C464.45 115.931 457.704 118.856 452.34 124.708C447.139 130.397 444.539 137.711 444.539 146.65C444.539 155.59 447.139 162.986 452.34 168.837C457.704 174.526 464.45 177.37 472.577 177.37Z" fill="black"/>
<path d="M341.12 206.871C329.255 206.871 318.771 204.27 309.669 199.069C300.567 193.868 293.496 186.716 288.458 177.614C283.581 168.512 281.143 158.272 281.143 146.894C281.143 135.679 283.663 125.52 288.701 116.418C293.74 107.154 300.729 99.9205 309.669 94.7193C318.608 89.5181 328.767 86.9175 340.145 86.9175C351.523 86.9175 361.6 89.5181 370.377 94.7193C379.317 99.9205 386.225 107.154 391.101 116.418C396.139 125.52 398.659 135.679 398.659 146.894C398.659 150.47 398.577 154.127 398.415 157.866H312.351C314.139 165.017 317.471 170.462 322.347 174.201C327.223 177.939 333.237 179.808 340.389 179.808C346.728 179.808 351.766 178.996 355.505 177.37C359.406 175.745 362.494 173.144 364.769 169.568H395.245C391.832 182.084 385.087 191.43 375.009 197.606C364.932 203.783 353.636 206.871 341.12 206.871ZM367.939 135.435C366.801 129.259 363.632 124.22 358.43 120.319C353.229 116.256 347.134 114.224 340.145 114.224C332.993 114.224 326.898 116.174 321.859 120.075C316.983 123.814 313.732 128.934 312.107 135.435H367.939Z" fill="black"/>
<path d="M250.134 206.14C234.368 206.14 221.771 201.67 212.344 192.73C203.079 183.791 198.447 170.3 198.447 152.258V53.2723H232.092V89.5997H266.957V116.906H232.092V148.845C232.092 155.672 232.823 161.035 234.286 164.936C235.912 168.837 238.756 171.763 242.82 173.713C246.883 175.664 252.653 176.639 260.13 176.639C262.893 176.477 265.656 176.395 268.419 176.395V204.189C262.406 205.49 256.31 206.14 250.134 206.14Z" fill="black"/>
<path d="M62.9592 140.068C62.9592 124.139 67.7541 111.38 77.3439 101.79C86.9337 92.0374 100.424 87.08 117.816 86.9175C135.208 87.08 148.698 92.0374 158.288 101.79C167.878 111.38 172.673 124.139 172.673 140.068V204.189H139.027V142.506C139.027 134.379 137.239 128.04 133.664 123.489C130.088 118.775 124.805 116.337 117.816 116.174C110.827 116.337 105.544 118.775 101.969 123.489C98.3927 128.04 96.6047 134.379 96.6047 142.506V204.189H62.9592V140.068Z" fill="black"/>
<path d="M4.14474 89.5994H37.7902V204.189H4.14474V89.5994ZM20.9675 72.289C15.2786 72.289 10.3212 70.3386 6.0952 66.4376C2.03173 62.5367 0 57.8231 0 52.2968C0 46.6079 2.03173 41.813 6.0952 37.9121C10.3212 33.8486 15.2786 31.8169 20.9675 31.8169C26.6563 31.8169 31.5325 33.8486 35.596 37.9121C39.822 41.813 41.935 46.6079 41.935 52.2968C41.935 57.8231 39.822 62.5367 35.596 66.4376C31.5325 70.3386 26.6563 72.289 20.9675 72.289Z" fill="black"/>
<defs>
<linearGradient id="paint0_linear_254_2" x1="889.615" y1="9.49226e-06" x2="683.824" y2="273.258" gradientUnits="userSpaceOnUse">
<stop offset="0.418493" stop-color="#CE00D6"/>
<stop offset="1" stop-color="#F14DFF"/>
</linearGradient>
<linearGradient id="paint1_linear_254_2" x1="889.615" y1="9.49226e-06" x2="683.824" y2="273.258" gradientUnits="userSpaceOnUse">
<stop offset="0.418493" stop-color="#CE00D6"/>
<stop offset="1" stop-color="#F14DFF"/>
</linearGradient>
</defs>
</svg>
